<svg id="svg" version="1.1" xmlns="http://www.w3.org/2000/svg" xmlns:xlink="http://www.w3.org/1999/xlink" width="400" height="368" viewBox="0, 0, 400,368"><g id="svgg"><path id="path0" d="M198.711 55.099 C 188.609 56.120,179.039 58.052,169.982 60.900 C 165.775 62.223,165.019 62.504,161.776 63.955 C 160.707 64.434,159.751 64.825,159.651 64.825 C 159.221 64.825,153.077 67.917,150.083 69.639 C 131.363 80.411,119.075 97.412,115.360 117.680 C 113.068 130.188,112.764 141.068,114.707 141.068 C 115.396 141.068,133.078 136.190,141.436 133.693 C 142.753 133.300,151.016 130.924,159.799 128.414 C 173.747 124.428,175.901 123.716,176.825 122.791 C 177.953 121.660,178.313 120.171,181.799 102.210 C 184.470 88.449,184.581 88.214,188.415 88.214 C 191.072 88.214,191.990 89.191,194.298 94.475 C 195.271 96.703,196.439 99.355,196.893 100.368 C 197.347 101.381,198.996 105.110,200.556 108.655 C 205.222 119.255,204.669 118.623,210.416 119.911 C 212.486 120.374,217.993 121.597,222.652 122.628 C 227.311 123.659,232.781 124.903,234.807 125.394 C 236.832 125.885,239.567 126.537,240.884 126.844 C 255.012 130.132,278.707 136.171,284.312 137.912 C 289.409 139.495,295.202 141.072,295.912 141.070 C 297.579 141.065,296.173 122.629,293.788 113.206 C 287.591 88.722,268.102 69.549,240.884 61.160 C 238.757 60.504,236.602 59.828,236.096 59.658 C 227.012 56.606,207.431 54.219,198.711 55.099 M165.724 224.937 C 162.458 227.685,163.416 232.233,167.460 233.171 C 169.048 233.540,240.275 233.641,242.473 233.277 C 246.572 232.600,247.680 226.852,244.129 224.687 C 242.927 223.954,242.374 223.944,204.909 223.942 L 166.907 223.941 165.724 224.937 " stroke="none" fill="#707260" fill-rule="evenodd"></path><path id="path1" d="M0.000 184.162 L 0.000 368.324 200.000 368.324 L 400.000 368.324 400.000 184.162 L 400.000 0.000 200.000 0.000 L 0.000 0.000 0.000 184.162 M217.495 55.387 C 224.228 56.367,226.300 56.753,230.571 57.822 C 271.485 68.061,293.090 90.795,296.556 127.256 C 298.032 142.782,296.448 149.102,288.800 158.198 C 286.928 160.425,285.167 162.681,284.887 163.211 L 284.378 164.175 286.480 164.422 C 307.542 166.896,317.598 190.383,304.173 205.748 C 298.273 212.501,291.222 215.410,281.952 214.916 C 279.319 214.776,276.501 214.641,275.691 214.616 C 273.090 214.536,268.101 217.269,264.792 220.586 C 259.741 225.649,258.234 229.954,258.202 239.411 C 258.134 259.383,246.913 271.539,223.665 276.827 L 219.153 277.853 219.153 287.361 C 219.153 295.457,219.233 296.869,219.691 296.869 C 223.126 296.869,238.092 299.434,246.553 301.472 C 262.218 305.246,272.460 311.580,273.509 318.141 L 273.759 319.707 205.112 319.614 L 136.464 319.521 136.573 318.416 C 137.445 309.523,155.868 301.314,182.873 297.787 C 185.506 297.443,188.407 297.050,189.319 296.915 L 190.976 296.668 190.976 287.284 L 190.976 277.901 188.766 277.394 C 180.817 275.570,172.093 272.434,168.608 270.146 C 167.853 269.651,167.126 269.245,166.992 269.245 C 166.466 269.245,161.785 265.145,160.172 263.272 C 154.317 256.474,152.058 250.071,151.884 239.779 C 151.820 236.031,151.577 232.136,151.344 231.123 C 149.202 221.842,139.571 213.569,132.233 214.707 C 121.685 216.344,112.659 213.317,106.014 205.915 C 92.417 190.766,102.413 167.035,123.481 164.448 C 126.295 164.102,126.287 164.085,119.677 156.169 C 114.303 149.733,112.762 144.366,113.175 133.517 C 114.694 93.570,135.396 69.689,178.637 58.003 C 190.221 54.872,206.450 53.780,217.495 55.387 M150.506 161.372 C 149.404 166.882,151.411 173.137,155.642 177.381 C 166.202 187.971,184.281 181.902,186.343 167.074 C 186.693 164.557,186.663 163.562,186.157 161.050 L 185.990 160.221 168.363 160.221 L 150.737 160.221 150.506 161.372 M223.954 160.933 C 223.744 161.325,223.573 162.865,223.573 164.355 C 223.573 180.899,243.588 188.992,254.817 176.988 C 258.936 172.585,261.084 165.075,259.445 160.805 C 259.061 159.804,224.491 159.929,223.954 160.933 " stroke="none" fill="#fbfbfb" fill-rule="evenodd"></path><path id="path2" d="M193.738 55.238 C 188.186 55.954,182.121 57.063,178.637 58.000 C 170.413 60.213,162.443 62.883,163.836 62.957 C 164.103 62.972,164.634 62.816,165.017 62.611 C 167.153 61.468,177.459 58.590,183.978 57.315 C 200.149 54.155,211.267 54.204,227.381 57.510 C 229.374 57.919,231.081 58.176,231.176 58.081 C 231.270 57.987,230.137 57.640,228.657 57.311 C 217.066 54.733,203.781 53.945,193.738 55.238 M232.228 58.522 C 233.358 59.004,235.649 59.397,234.991 58.995 C 234.687 58.810,233.775 58.557,232.965 58.433 C 232.005 58.286,231.748 58.317,232.228 58.522 M236.280 59.637 C 236.685 59.823,238.757 60.510,240.884 61.163 C 270.933 70.396,289.288 90.307,295.362 120.258 L 295.735 122.099 295.557 119.890 C 294.897 111.696,289.883 99.168,283.719 90.309 C 274.808 77.503,260.415 67.401,242.173 61.148 C 238.287 59.816,234.625 58.877,236.280 59.637 M158.727 64.767 C 138.463 73.910,124.646 88.008,118.026 106.296 C 117.329 108.221,116.764 109.996,116.770 110.239 C 116.776 110.482,117.416 109.015,118.192 106.978 C 125.749 87.135,139.815 73.022,160.589 64.437 C 162.605 63.604,163.654 62.969,162.965 62.998 C 162.773 63.007,160.866 63.803,158.727 64.767 M186.556 88.361 C 184.384 89.318,184.181 89.908,181.797 102.210 C 178.330 120.100,177.953 121.660,176.825 122.791 C 175.901 123.716,173.747 124.428,159.799 128.414 C 151.016 130.924,142.753 133.300,141.436 133.693 C 133.078 136.190,115.396 141.068,114.707 141.068 C 113.582 141.068,113.304 138.887,113.566 132.100 C 113.697 128.697,113.656 127.463,113.448 128.545 C 111.542 138.477,113.998 149.368,119.677 156.169 C 126.287 164.085,126.295 164.102,123.481 164.448 C 102.413 167.035,92.417 190.766,106.014 205.915 C 112.659 213.317,121.685 216.344,132.233 214.707 C 139.571 213.569,149.202 221.842,151.344 231.123 C 151.577 232.136,151.820 236.031,151.884 239.779 C 152.058 250.071,154.317 256.474,160.172 263.272 C 161.785 265.145,166.466 269.245,166.992 269.245 C 167.126 269.245,167.853 269.651,168.608 270.146 C 172.093 272.434,180.817 275.570,188.766 277.394 L 190.976 277.901 190.976 287.293 L 190.976 296.685 192.449 297.717 C 194.179 298.929,196.702 300.290,196.883 300.109 C 196.953 300.039,196.130 299.521,195.054 298.958 C 191.267 296.975,191.502 297.781,191.614 287.181 L 191.713 277.901 194.291 278.085 C 197.461 278.311,212.561 278.328,215.838 278.109 L 218.232 277.949 218.330 287.379 L 218.429 296.810 217.399 297.543 C 216.833 297.947,215.562 298.706,214.576 299.230 C 213.589 299.755,213.000 300.184,213.266 300.184 C 213.532 300.184,214.966 299.427,216.452 298.501 L 219.153 296.817 219.153 287.335 L 219.153 277.853 223.665 276.827 C 246.913 271.539,258.134 259.383,258.202 239.411 C 258.234 229.954,259.741 225.649,264.792 220.586 C 268.101 217.269,273.090 214.536,275.691 214.616 C 276.501 214.641,279.319 214.776,281.952 214.916 C 291.222 215.410,298.273 212.501,304.173 205.748 C 317.598 190.383,307.542 166.896,286.480 164.422 L 284.378 164.175 284.887 163.211 C 285.167 162.681,286.928 160.425,288.800 158.198 C 296.226 149.366,296.691 147.979,296.647 134.807 C 296.627 128.726,296.457 124.491,296.196 123.573 L 295.777 122.099 295.961 123.757 C 296.635 129.838,296.604 141.068,295.912 141.070 C 295.202 141.072,289.409 139.495,284.312 137.912 C 278.707 136.171,255.012 130.132,240.884 126.844 C 239.567 126.537,236.832 125.885,234.807 125.394 C 232.781 124.903,227.311 123.659,222.652 122.628 C 202.530 118.177,205.603 120.120,200.556 108.655 C 198.996 105.110,197.347 101.381,196.893 100.368 C 196.439 99.355,195.271 96.703,194.298 94.475 C 191.803 88.761,189.599 87.021,186.556 88.361 M116.066 112.210 C 115.320 115.044,114.231 121.051,114.038 123.389 C 113.811 126.152,114.010 125.324,115.145 118.785 C 115.461 116.961,115.963 114.498,116.260 113.311 C 116.557 112.124,116.719 111.071,116.619 110.972 C 116.520 110.872,116.271 111.429,116.066 112.210 M198.411 137.735 C 200.332 138.906,200.556 139.656,200.518 144.777 C 200.460 152.519,197.465 157.169,191.133 159.351 C 188.686 160.194,144.425 160.206,143.140 159.365 C 140.022 157.321,140.107 153.030,143.301 151.318 C 144.476 150.688,145.945 150.645,166.335 150.645 L 188.114 150.645 189.129 149.846 C 190.617 148.676,191.160 147.015,191.160 143.640 C 191.160 138.056,194.490 135.344,198.411 137.735 M216.548 137.612 C 218.204 138.590,218.568 139.534,218.805 143.462 C 219.267 151.131,217.553 150.644,244.089 150.646 C 264.919 150.647,265.791 150.675,266.925 151.366 C 269.883 153.170,270.004 157.442,267.150 159.311 C 265.885 160.140,221.652 160.248,219.165 159.428 C 212.831 157.340,209.835 152.749,209.640 144.829 L 209.519 139.934 210.978 138.475 C 212.633 136.820,214.672 136.504,216.548 137.612 M186.157 161.050 C 186.663 163.562,186.693 164.557,186.343 167.074 C 184.281 181.902,166.202 187.971,155.642 177.381 C 151.411 173.137,149.404 166.882,150.506 161.372 L 150.737 160.221 168.363 160.221 L 185.990 160.221 186.157 161.050 M259.445 160.805 C 261.084 165.075,258.936 172.585,254.817 176.988 C 243.588 188.992,223.573 180.899,223.573 164.355 C 223.573 159.786,221.657 160.221,241.778 160.221 C 257.360 160.221,259.245 160.283,259.445 160.805 M127.041 166.843 C 127.654 168.782,127.390 170.976,125.662 178.269 C 121.396 196.274,123.025 206.095,131.254 211.971 C 133.660 213.689,133.719 213.827,132.166 214.138 C 108.190 218.933,90.864 192.494,106.049 174.282 C 110.644 168.772,118.244 164.963,124.309 165.132 L 126.519 165.193 127.041 166.843 M290.108 165.587 C 311.047 170.443,316.636 196.713,299.448 209.491 C 293.720 213.749,283.442 215.913,277.546 214.102 L 276.455 213.767 278.467 212.277 C 287.295 205.742,288.791 196.939,284.328 177.770 C 281.499 165.619,282.366 163.792,290.108 165.587 M210.469 183.247 C 221.213 185.120,226.520 194.410,221.924 203.298 C 219.596 207.799,212.780 205.812,213.405 200.814 C 214.118 195.102,214.116 194.963,213.315 194.163 C 211.944 192.791,208.857 192.175,204.104 192.326 C 197.175 192.546,195.352 193.954,196.331 198.329 C 198.020 205.867,191.213 209.171,187.873 202.434 C 184.687 196.007,187.655 187.890,194.291 184.881 C 196.208 184.012,197.315 183.702,201.289 182.919 C 203.050 182.573,207.517 182.732,210.469 183.247 M179.484 215.342 C 181.021 216.136,181.280 216.494,183.250 220.534 L 184.911 223.941 187.990 223.941 L 191.068 223.941 191.229 220.880 C 191.657 212.708,199.899 212.422,200.368 220.562 L 200.552 223.757 205.064 223.860 L 209.576 223.964 209.576 221.362 C 209.576 216.283,212.268 213.693,215.948 215.231 C 218.021 216.097,218.782 217.672,218.783 221.101 L 218.785 223.970 221.958 223.863 L 225.132 223.757 226.933 220.285 C 229.973 214.421,232.654 213.189,235.715 216.250 C 237.519 218.054,237.535 219.709,235.789 223.663 C 235.721 223.816,237.296 223.942,239.288 223.942 C 245.704 223.945,248.699 228.224,244.926 231.997 C 243.386 233.537,244.107 233.510,204.972 233.505 C 163.382 233.499,164.929 233.639,163.890 229.780 C 162.914 226.157,165.447 223.941,170.562 223.941 C 174.483 223.941,174.658 223.837,173.665 222.099 C 171.392 218.124,175.542 213.305,179.484 215.342 M216.192 242.902 C 219.686 244.709,219.463 249.463,215.825 250.716 C 213.893 251.381,195.942 251.361,194.371 250.692 C 190.605 249.087,190.287 244.447,193.838 242.903 C 195.622 242.128,214.693 242.127,216.192 242.902 M211.050 300.552 C 210.291 300.795,210.259 300.853,210.866 300.878 C 211.271 300.896,211.851 300.749,212.155 300.552 C 212.800 300.135,212.352 300.135,211.050 300.552 M199.263 300.903 C 200.184 301.216,202.469 301.411,202.179 301.152 C 202.095 301.077,201.197 300.919,200.184 300.802 C 198.942 300.659,198.642 300.692,199.263 300.903 M208.195 301.175 C 208.550 301.267,209.130 301.267,209.484 301.175 C 209.839 301.082,209.549 301.006,208.840 301.006 C 208.131 301.006,207.841 301.082,208.195 301.175 " stroke="none" fill="#84cbbb" fill-rule="evenodd"></path><path id="path3" d="M193.228 137.786 C 191.630 139.043,191.160 140.373,191.160 143.640 C 191.160 147.015,190.617 148.676,189.129 149.846 L 188.114 150.645 166.335 150.645 C 145.945 150.645,144.476 150.688,143.301 151.318 C 140.107 153.030,140.022 157.321,143.140 159.365 C 144.425 160.206,188.686 160.194,191.133 159.351 C 195.005 158.017,197.683 155.523,199.495 151.565 C 200.654 149.034,201.030 140.985,200.069 139.299 C 198.830 137.127,195.111 136.305,193.228 137.786 M210.978 138.475 L 209.519 139.934 209.640 144.829 C 209.835 152.749,212.831 157.340,219.165 159.428 C 221.652 160.248,265.885 160.140,267.150 159.311 C 270.004 157.442,269.883 153.170,266.925 151.366 C 265.791 150.675,264.919 150.647,244.089 150.646 C 217.553 150.644,219.267 151.131,218.805 143.462 C 218.425 137.160,214.679 134.774,210.978 138.475 M119.521 165.713 C 110.411 167.985,102.667 176.004,100.723 185.181 C 97.423 200.749,111.969 216.140,128.527 214.601 C 133.995 214.093,134.093 213.998,131.254 211.971 C 123.025 206.095,121.396 196.274,125.662 178.269 C 127.390 170.976,127.654 168.782,127.041 166.843 L 126.519 165.193 124.309 165.132 C 123.094 165.098,120.939 165.360,119.521 165.713 M283.221 166.359 C 282.607 168.220,282.966 171.918,284.328 177.770 C 288.791 196.939,287.295 205.742,278.467 212.277 L 276.455 213.767 277.546 214.102 C 278.146 214.286,280.709 214.456,283.241 214.479 C 306.077 214.687,318.288 189.442,303.135 173.349 C 296.839 166.662,284.545 162.347,283.221 166.359 M201.289 182.919 C 197.315 183.702,196.208 184.012,194.291 184.881 C 187.655 187.890,184.687 196.007,187.873 202.434 C 191.213 209.171,198.020 205.867,196.331 198.329 C 195.352 193.954,197.175 192.546,204.104 192.326 C 208.857 192.175,211.944 192.791,213.315 194.163 C 214.116 194.963,214.118 195.102,213.405 200.814 C 212.780 205.812,219.596 207.799,221.924 203.298 C 224.511 198.296,223.490 191.148,219.643 187.320 C 216.355 184.048,206.977 181.799,201.289 182.919 M175.844 215.257 C 173.230 216.395,172.426 219.134,173.757 222.370 L 174.401 223.938 179.681 223.940 C 182.584 223.940,184.896 223.817,184.818 223.665 C 184.740 223.513,183.986 221.980,183.143 220.258 C 180.610 215.089,178.907 213.923,175.844 215.257 M194.107 215.319 C 192.021 216.206,191.412 217.383,191.229 220.880 L 191.068 223.941 195.810 223.942 L 200.552 223.942 200.368 220.664 C 200.093 215.756,197.761 213.765,194.107 215.319 M212.149 215.409 C 210.312 216.376,209.578 218.050,209.577 221.271 L 209.576 223.941 214.180 223.941 L 218.785 223.941 218.783 221.087 C 218.781 215.992,215.833 213.469,212.149 215.409 M230.717 215.259 C 229.373 215.845,228.671 216.803,226.587 220.902 L 225.042 223.941 230.340 223.941 L 235.637 223.941 236.419 222.123 C 238.389 217.544,234.957 213.414,230.717 215.259 M193.838 242.903 C 190.287 244.447,190.605 249.087,194.371 250.692 C 195.942 251.361,213.893 251.381,215.825 250.716 C 219.463 249.463,219.686 244.709,216.192 242.902 C 214.693 242.127,195.622 242.128,193.838 242.903 M191.756 277.980 C 191.034 278.702,191.536 296.479,192.299 297.190 C 197.515 302.049,209.525 302.566,216.314 298.223 L 218.429 296.870 218.330 287.410 L 218.232 277.949 215.838 278.109 C 212.091 278.359,194.422 278.274,193.137 277.999 C 192.503 277.863,191.881 277.855,191.756 277.980 " stroke="none" fill="#2fbd9f" fill-rule="evenodd"></path><path id="path4" d="M187.845 297.110 C 187.339 297.187,184.936 297.512,182.505 297.833 C 155.756 301.365,137.440 309.573,136.573 318.416 L 136.464 319.521 205.112 319.614 L 273.759 319.707 273.509 318.141 C 272.048 309.004,253.552 301.069,225.536 297.559 L 219.211 296.766 216.792 298.294 C 210.008 302.579,200.005 302.602,193.423 298.348 C 191.174 296.895,190.396 296.722,187.845 297.110 " stroke="none" fill="#efd15e" fill-rule="evenodd"></path></g></svg>